<?xml version="1.0" encoding="UTF-8" standalone="no"?>
<svg
   xmlns:dc="http://purl.org/dc/elements/1.1/"
   xmlns:cc="http://creativecommons.org/ns#"
   xmlns:rdf="http://www.w3.org/1999/02/22-rdf-syntax-ns#"
   xmlns:svg="http://www.w3.org/2000/svg"
   xmlns="http://www.w3.org/2000/svg"
   xmlns:sodipodi="http://sodipodi.sourceforge.net/DTD/sodipodi-0.dtd"
   xmlns:inkscape="http://www.inkscape.org/namespaces/inkscape"
   id="MDN_Web_Docs"
   data-name="MDN Web Docs"
   viewBox="0 0 219 49"
   preserveAspectRatio="xMaxYMid"
   width="219"
   height="49"
   version="1.1"
   sodipodi:docname="logo-footer.svg"
   inkscape:version="0.92.4 (5da689c313, 2019-01-14)">
  <metadata
     id="metadata15">
    <rdf:RDF>
      <cc:Work
         rdf:about="">
        <dc:format>image/svg+xml</dc:format>
        <dc:type
           rdf:resource="http://purl.org/dc/dcmitype/StillImage" />
        <dc:title>MDN Web Docs</dc:title>
      </cc:Work>
    </rdf:RDF>
  </metadata>
  <sodipodi:namedview
     pagecolor="#ffffff"
     bordercolor="#666666"
     borderopacity="1"
     objecttolerance="10"
     gridtolerance="10"
     guidetolerance="10"
     inkscape:pageopacity="0"
     inkscape:pageshadow="2"
     inkscape:window-width="1858"
     inkscape:window-height="1057"
     id="namedview13"
     showgrid="false"
     inkscape:zoom="1.3378995"
     inkscape:cx="109.5"
     inkscape:cy="53"
     inkscape:window-x="54"
     inkscape:window-y="-8"
     inkscape:window-maximized="1"
     inkscape:current-layer="MDN_Web_Docs" />
  <defs
     id="defs4">
    <style
       id="style2">.cls-1{fill:#fff;}</style>
  </defs>
  <title
     id="title6">MDN Web Docs</title>
  <path
     d="m 49.752,31.868 h 59.917 V 49 H 49.75 Z m 57.23,12.3 c -0.103,0.03 -0.21,0.048 -0.316,0.05 -0.338,0 -0.514,-0.15 -0.514,-0.582 V 40.38 c 0,-1.71 -1.352,-2.543 -2.976,-2.543 -1.107,-0.025 -2.205,0.207 -3.21,0.676 l -0.29,1.725 1.71,0.182 0.245,-0.842 c 0.358,-0.168 0.753,-0.242 1.147,-0.216 1.214,0 1.23,0.913 1.23,1.69 v 0.234 c -0.407,-0.048 -0.818,-0.07 -1.23,-0.068 -1.71,0 -3.49,0.433 -3.49,2.276 0,1.563 1.23,2.144 2.31,2.144 1.022,-0.003 1.954,-0.58 2.41,-1.494 0.018,0.88 0.77,1.563 1.648,1.494 0.472,0 0.936,-0.117 1.353,-0.338 z m -4.604,-0.05 c -0.504,0.063 -0.936,-0.362 -0.88,-0.867 0,-0.814 0.677,-1.014 1.432,-1.014 0.36,0.008 0.722,0.04 1.078,0.098 -0.05,1.235 -0.852,1.783 -1.63,1.783 z m -4.99,-10.072 -3.24,11.433 h 2.11 L 99.5,34.045 Z m -4.353,0 -3.24,11.433 h 2.11 l 3.24,-11.434 z m -6.89,6.645 h 2.243 v -2.704 h -2.242 z m 0,4.803 h 2.243 v -2.705 h -2.242 z m -3.617,-1.64 H 80.1 l 4.156,-4.735 -0.166,-1.13 h -6.58 l -0.268,2.63 1.546,0.164 0.338,-1.163 h 2.343 l -4.123,4.733 0.216,1.13 h 6.544 l 0.467,-2.628 -1.69,-0.165 z M 72.143,37.838 c -2.706,0 -4.02,1.812 -4.02,4.004 0,2.395 1.595,3.805 3.905,3.805 2.394,0 4.122,-1.51 4.122,-3.906 -0.003,-2.094 -1.32,-3.907 -4.01,-3.907 z m -0.054,6.154 c -1.165,0 -1.763,-0.996 -1.763,-2.29 0,-1.415 0.676,-2.23 1.778,-2.23 1.015,0 1.83,0.676 1.83,2.195 0,1.437 -0.73,2.326 -1.846,2.326 z m -5.906,-3.563 c 0,-1.78 -1.224,-2.594 -2.577,-2.594 -1.075,-0.04 -2.057,0.608 -2.44,1.613 -0.367,-1.1 -1.364,-1.613 -2.443,-1.613 -0.94,-0.04 -1.82,0.456 -2.276,1.28 v -1.13 h -3.14 v 1.63 h 0.996 v 4.24 h -0.997 v 1.63 h 4.572 v -1.63 h -1.432 v -2.61 c 0,-1.05 0.433,-1.78 1.448,-1.78 0.845,0 1.278,0.5 1.278,1.796 v 4.223 h 3.14 v -1.63 h -0.996 v -2.61 c 0,-1.05 0.433,-1.78 1.447,-1.78 0.846,0 1.278,0.5 1.278,1.796 v 4.213 h 3.142 v -1.63 h -0.998 z m 78.791,-22.395 h -6.29 c 0.23,-1.935 1.16,-3.558 3.274,-3.558 2.245,0 3.2,1.857 3.016,3.558 z M 218.952,1.044 V 30.18 H 49.752 V 1.045 Z M 71.706,7.93 h -3.85 L 61.51,21.052 H 61.406 L 54.882,7.93 h -3.84 v 1.65 h 2.19 V 23.025 H 51.12 v 1.65 h 5.927 v -1.65 h -2.012 v -10.74 h 0.1 l 5.75,11.552 H 61.9 l 5.62,-11.474 h 0.105 v 10.662 h -1.962 v 1.65 h 5.942 v -1.65 h -2.09 V 9.58 h 2.19 z M 81.7,24.69 c 5.285,0 8.484,-3.48 8.484,-8.422 0,-4.846 -3.094,-8.352 -8.56,-8.352 h -7.503 v 1.623 h 2.114 V 23.065 H 74.12 v 1.623 z M 108.75,7.93 h -6.426 v 1.65 h 2.526 v 11.267 h -0.1 L 95.21,7.93 H 91.6 v 1.65 h 2.22 v 13.445 h -1.935 v 1.65 h 6.385 v -1.65 H 95.615 V 11.487 h 0.1 l 9.724,13.202 h 1.21 V 9.58 h 2.09 z m 26.71,5.288 h -5.156 v 1.468 h 1.83 l -1.857,7.247 h -0.128 l -3.586,-8.715 h -1.21 l -3.423,8.718 h -0.127 l -2.14,-7.247 h 1.933 v -1.472 h -5.41 v 1.468 h 1.522 l 3.25,10.003 h 1.352 l 3.432,-8.767 h 0.13 l 3.496,8.766 h 1.393 l 3.122,-10.004 h 1.573 z m 6.704,11.728 c 2.837,0 4.514,-1.583 4.83,-3.568 l -1.523,-0.338 c -0.36,1.42 -1.365,2.347 -3.17,2.347 -2.283,0 -3.53,-1.468 -3.636,-4.02 h 8.058 c 0.1,-0.445 0.153,-0.898 0.156,-1.354 -0.024,-2.708 -1.728,-5.028 -4.873,-5.028 -3.246,0 -5.26,2.58 -5.26,6.138 0,3.713 2.162,5.826 5.412,5.826 z m 13.408,0 c 3.663,0 5.134,-3.25 5.134,-6.294 0,-3.642 -2.063,-5.67 -4.924,-5.67 -2.19,0 -3.402,1.186 -4.1,2.603 V 6.948 h -3.53 v 1.47 h 1.692 v 12.923 c -0.03,1.125 -0.143,2.245 -0.338,3.352 h 1.805 c 0.028,-0.128 0.235,-1.78 0.235,-1.907 0.747,1.39 2.242,2.164 4.02,2.164 z m 26.198,-1.728 h -1.985 V 6.948 h -4.6 v 1.47 h 2.798 v 6.653 c -0.748,-1.34 -2.15,-2.09 -3.842,-2.09 -3.74,0 -5.183,3.2 -5.183,6.268 0,3.584 1.958,5.698 4.924,5.698 2.087,0 3.352,-1.224 4.1,-2.577 v 2.322 h 3.784 z m 6.963,1.728 c 3.53,0 5.75,-2.526 5.742,-6.006 0,-3.25 -1.934,-5.982 -5.647,-5.982 -3.713,0 -5.67,2.735 -5.67,6.087 0,3.456 2.09,5.904 5.568,5.904 z m 12.942,0 c 3.172,0 4.538,-2.114 4.866,-4.112 l -1.548,-0.34 c -0.334,1.885 -1.315,2.917 -3.094,2.917 -2.27,0 -3.507,-1.636 -3.507,-4.396 0,-2.475 0.982,-4.487 3.43,-4.487 0.862,-0.03 1.713,0.195 2.45,0.646 l 0.42,1.937 1.496,-0.18 -0.44,-2.758 c -1.16,-0.876 -2.397,-1.187 -3.92,-1.187 -3.556,0 -5.362,2.965 -5.362,6.138 0,3.686 2.036,5.826 5.208,5.826 z m 11.166,0 c 2.76,0 4.874,-1.34 4.847,-3.595 0,-4.564 -7.1,-2.194 -7.1,-5.183 0,-1.177 1.03,-1.69 2.474,-1.69 0.826,-0.015 1.64,0.18 2.368,0.567 l 0.267,1.864 1.495,-0.18 -0.284,-2.68 c -1.22,-0.692 -2.596,-1.057 -3.997,-1.06 -2.088,0 -4.255,0.903 -4.255,3.328 0,4.46 7.193,2.063 7.193,5.208 0,1.315 -1.495,1.934 -3.095,1.934 -0.883,0.007 -1.756,-0.187 -2.553,-0.568 l 0.078,-1.522 -1.444,-0.156 -0.362,2.604 c 0.977,0.643 2.736,1.133 4.36,1.133 z m -54.042,-6.11 c 0,2.373 -1.058,4.564 -3.584,4.564 -1.94,0.044 -3.534,-1.516 -3.534,-3.456 v -1.728 c 0.05,-1.7 1.444,-3.686 3.635,-3.686 1.948,0 3.48,1.444 3.483,4.305 z m 19.18,-1.06 v 1.833 c -0.076,1.728 -1.57,3.79 -3.634,3.79 -1.985,0 -3.48,-1.47 -3.48,-4.28 0,-2.426 1.133,-4.59 3.686,-4.59 1.84,-0.04 3.37,1.408 3.43,3.247 z m 14.597,1.133 c 0,2.58 -1.34,4.487 -3.79,4.487 -2.453,0 -3.74,-1.958 -3.74,-4.46 0,-2.55 1.34,-4.434 3.74,-4.434 2.397,0 3.79,1.78 3.79,4.406 z M 88.186,16.315 c 0,4.16 -2.32,6.763 -6.574,6.763 H 78.134 V 9.55 H 81.6 c 4.254,0 6.574,2.71 6.587,6.764 z M 0.116,1.044 H 48.072 V 49 H 0.116 Z m 41.896,22.02 c -0.038,-0.723 -0.122,-1.448 -0.172,-2.166 -0.028,-0.36 -0.164,-0.703 -0.395,-0.98 -0.272,-0.332 -0.626,-0.587 -1.026,-0.74 -0.808,-0.314 -1.62,-0.664 -2.435,-0.976 -1.153,-0.393 -2.27,-0.884 -3.34,-1.47 -0.72,-0.415 -1.202,-1.146 -1.297,-1.97 -0.107,-0.935 -0.654,-1.764 -1.47,-2.23 -0.907,-0.487 -1.964,-0.612 -2.96,-0.35 -0.732,0.176 -1.5,0.164 -2.227,-0.033 l -1.112,-0.34 -0.302,-0.09 -0.872,-0.26 c -1.57,-0.47 -2.23,-0.714 -4.775,-0.28 -2.682,0.61 -5.137,1.96 -7.09,3.898 l -6.37,6.76 h 5.72 l -3.504,3.71 h 6.026 l -3.503,3.71 h 4.844 l -1.548,4.06 c 5.93,6.07 12.25,7.295 12.25,7.295 0,-1.672 0.38,-8.238 0.826,-9.34 0.167,-0.55 0.425,-1.07 0.763,-1.538 0.826,-1.016 2.08,-1.59 3.392,-1.548 1.303,0 2.597,0.237 3.814,0.702 0.74,0.308 1.58,0.262 2.28,-0.123 0.506,-0.3 1.007,-0.618 1.498,-0.94 0.158,-0.126 0.355,-0.188 0.556,-0.18 0.54,0.06 1.054,-0.237 1.27,-0.734 0.16,-0.33 0.35,-0.64 0.524,-0.97 0.472,-0.883 0.69,-1.88 0.634,-2.88 z"
     id="path10"
     inkscape:connector-curvature="0"
     style="fill:#ffffff" />
</svg>
